<?xml version="1.0" encoding="UTF-8" standalone="no"?>
<!-- Created with Inkscape (http://www.inkscape.org/) -->

<svg
   xmlns:dc="http://purl.org/dc/elements/1.1/"
   xmlns:cc="http://creativecommons.org/ns#"
   xmlns:rdf="http://www.w3.org/1999/02/22-rdf-syntax-ns#"
   xmlns:svg="http://www.w3.org/2000/svg"
   xmlns="http://www.w3.org/2000/svg"
   xmlns:sodipodi="http://sodipodi.sourceforge.net/DTD/sodipodi-0.dtd"
   xmlns:inkscape="http://www.inkscape.org/namespaces/inkscape"
   width="327.67029mm"
   height="237.03212mm"
   viewBox="0 0 1161.0364 839.87759"
   id="svg4414"
   version="1.1"
   inkscape:version="0.92.3 (2405546, 2018-03-11)"
   sodipodi:docname="drupal_architecture.svg">
  <defs
     id="defs4416">
    <marker
       inkscape:isstock="true"
       style="overflow:visible"
       id="marker8168"
       refX="0"
       refY="0"
       orient="auto"
       inkscape:stockid="TriangleOutL">
      <path
         transform="scale(0.8,0.8)"
         style="fill:#28a9e0;fill-opacity:1;fill-rule:evenodd;stroke:#28a9e0;stroke-width:1pt;stroke-opacity:1"
         d="m 5.77,0 -8.65,5 0,-10 8.65,5 z"
         id="path8170"
         inkscape:connector-curvature="0" />
    </marker>
    <marker
       inkscape:isstock="true"
       style="overflow:visible"
       id="marker8080"
       refX="0"
       refY="0"
       orient="auto"
       inkscape:stockid="TriangleOutL">
      <path
         inkscape:connector-curvature="0"
         transform="scale(0.8,0.8)"
         style="fill:#28a9e0;fill-opacity:1;fill-rule:evenodd;stroke:#28a9e0;stroke-width:1pt;stroke-opacity:1"
         d="m 5.77,0 -8.65,5 0,-10 8.65,5 z"
         id="path8082" />
    </marker>
    <marker
       inkscape:stockid="TriangleOutL"
       orient="auto"
       refY="0"
       refX="0"
       id="marker7502"
       style="overflow:visible"
       inkscape:isstock="true">
      <path
         inkscape:connector-curvature="0"
         id="path7504"
         d="m 5.77,0 -8.65,5 0,-10 8.65,5 z"
         style="fill:#28a9e0;fill-opacity:1;fill-rule:evenodd;stroke:#28a9e0;stroke-width:1pt;stroke-opacity:1"
         transform="scale(0.8,0.8)" />
    </marker>
    <marker
       inkscape:isstock="true"
       style="overflow:visible"
       id="marker6572"
       refX="0"
       refY="0"
       orient="auto"
       inkscape:stockid="TriangleOutL">
      <path
         transform="scale(0.8,0.8)"
         style="fill:#28a9e0;fill-opacity:1;fill-rule:evenodd;stroke:#28a9e0;stroke-width:1pt;stroke-opacity:1"
         d="m 5.77,0 -8.65,5 0,-10 8.65,5 z"
         id="path6574"
         inkscape:connector-curvature="0" />
    </marker>
    <marker
       inkscape:isstock="true"
       style="overflow:visible"
       id="marker6360"
       refX="0"
       refY="0"
       orient="auto"
       inkscape:stockid="TriangleOutL">
      <path
         transform="scale(0.8,0.8)"
         style="fill:#28a9e0;fill-opacity:1;fill-rule:evenodd;stroke:#28a9e0;stroke-width:1pt;stroke-opacity:1"
         d="m 5.77,0 -8.65,5 0,-10 8.65,5 z"
         id="path6362"
         inkscape:connector-curvature="0" />
    </marker>
    <marker
       inkscape:stockid="TriangleOutL"
       orient="auto"
       refY="0"
       refX="0"
       id="marker5581"
       style="overflow:visible"
       inkscape:isstock="true">
      <path
         inkscape:connector-curvature="0"
         id="path5583"
         d="m 5.77,0 -8.65,5 0,-10 8.65,5 z"
         style="fill:#28a9e0;fill-opacity:1;fill-rule:evenodd;stroke:#28a9e0;stroke-width:1pt;stroke-opacity:1"
         transform="scale(0.8,0.8)" />
    </marker>
    <marker
       inkscape:isstock="true"
       style="overflow:visible"
       id="marker7466"
       refX="0"
       refY="0"
       orient="auto"
       inkscape:stockid="TriangleOutL">
      <path
         inkscape:connector-curvature="0"
         transform="scale(0.8,0.8)"
         style="fill:#28a9e0;fill-opacity:1;fill-rule:evenodd;stroke:#28a9e0;stroke-width:1pt;stroke-opacity:1"
         d="m 5.77,0 -8.65,5 0,-10 8.65,5 z"
         id="path7468" />
    </marker>
    <marker
       inkscape:isstock="true"
       style="overflow:visible"
       id="Arrow1Mend"
       refX="0"
       refY="0"
       orient="auto"
       inkscape:stockid="Arrow1Mend">
      <path
         inkscape:connector-curvature="0"
         transform="matrix(-0.4,0,0,-0.4,-4,0)"
         style="fill:#000000;fill-opacity:1;fill-rule:evenodd;stroke:#000000;stroke-width:1pt;stroke-opacity:1"
         d="M 0,0 5,-5 -12.5,0 5,5 0,0 Z"
         id="path6973" />
    </marker>
  </defs>
  <sodipodi:namedview
     id="base"
     pagecolor="#ffffff"
     bordercolor="#666666"
     borderopacity="1.0"
     inkscape:pageopacity="0.0"
     inkscape:pageshadow="2"
     inkscape:zoom="0.35527973"
     inkscape:cx="-461.98866"
     inkscape:cy="448.74531"
     inkscape:document-units="px"
     inkscape:current-layer="layer1"
     showgrid="false"
     inkscape:window-width="1537"
     inkscape:window-height="849"
     inkscape:window-x="63"
     inkscape:window-y="27"
     inkscape:window-maximized="1"
     inkscape:snap-text-baseline="true"
     inkscape:snap-object-midpoints="true"
     inkscape:snap-others="true"
     inkscape:snap-nodes="true"
     inkscape:snap-global="false"
     fit-margin-top="0"
     fit-margin-left="0"
     fit-margin-right="0"
     fit-margin-bottom="0" />
  <metadata
     id="metadata4419">
    <rdf:RDF>
      <cc:Work
         rdf:about="">
        <dc:format>image/svg+xml</dc:format>
        <dc:type
           rdf:resource="http://purl.org/dc/dcmitype/StillImage" />
        <dc:title />
      </cc:Work>
    </rdf:RDF>
  </metadata>
  <g
     inkscape:label="Layer 1"
     inkscape:groupmode="layer"
     id="layer1"
     transform="translate(427.50381,-334.60908)">
    <g
       id="g1751"
       inkscape:export-filename="/home/tpl/Desktop/drupal-glyphs/png/drupal_architecture.png"
       inkscape:export-xdpi="85.241302"
       inkscape:export-ydpi="85.241302">
      <path
         inkscape:connector-curvature="0"
         id="path5271"
         d=""
         style="fill:#000000" />
      <rect
         ry="10"
         rx="10"
         y="336.10059"
         x="-426.0123"
         height="836.89459"
         width="1158.0535"
         id="rect5257"
         style="color:#000000;clip-rule:nonzero;display:inline;overflow:visible;visibility:visible;opacity:1;isolation:auto;mix-blend-mode:normal;color-interpolation:sRGB;color-interpolation-filters:linearRGB;solid-color:#000000;solid-opacity:1;fill:#ffffff;fill-opacity:1;fill-rule:nonzero;stroke:#28a9e0;stroke-width:2.98301339;stroke-linecap:round;stroke-linejoin:round;stroke-miterlimit:4;stroke-dasharray:none;stroke-dashoffset:0;stroke-opacity:1;color-rendering:auto;image-rendering:auto;shape-rendering:auto;text-rendering:auto;enable-background:accumulate" />
      <g
         style="opacity:0.06000001"
         transform="matrix(1.5888027,0,0,1.5888027,570.33708,454.46258)"
         id="g5187">
        <g
           id="g5189">
          <path
             id="path5191"
             d="m -69.7,312.5 c -29.1,0 -52.7,23.6 -52.7,52.7 0,29.1 23.6,52.7 52.7,52.7 29.1,0 52.7,-23.6 52.7,-52.7 0,-29.1 -23.6,-52.7 -52.7,-52.7 z"
             inkscape:connector-curvature="0"
             style="fill:#2ba9e0" />
        </g>
        <g
           id="g5193">
          <path
             id="path5195"
             d="m -4.1,302.4 c 15.6,16.3 25.2,38.4 25.2,62.8 0,30.9 -15.4,58.1 -38.9,74.5 43.5,-13.4 79.5,-46.1 95.6,-85.7 22.3,-54.8 1.5,-96 -33.3,-133.4 1.1,4.8 1.7,9.9 1.7,15 -0.1,31.8 -21.3,58.5 -50.3,66.8 z"
             inkscape:connector-curvature="0"
             style="fill:#2ba9e0" />
        </g>
        <g
           id="g5197">
          <path
             id="path5199"
             d="m -63.7,235.7 c 0,22.3 18.1,40.3 40.3,40.3 22.2,0 40.4,-18.1 40.4,-40.3 0,-22.3 -18.1,-40.3 -40.3,-40.3 -22.2,0 -40.4,18 -40.4,40.3 z"
             inkscape:connector-curvature="0"
             style="fill:#2ba9e0" />
        </g>
        <g
           id="g5201">
          <path
             id="path5203"
             d="m -139.2,423.7 c -13.3,-15.8 -21.3,-36.2 -21.3,-58.5 0,-46.5 34.9,-84.8 80,-90.1 -7.7,-11.2 -12.3,-24.8 -12.3,-39.4 0,-38.4 31.1,-69.4 69.5,-69.4 3.2,0 6.3,0.2 9.3,0.6 -22.7,-19.6 -45.4,-39.5 -63.3,-61.2 9.1,95.2 -86.7,60.6 -122.2,148.4 -23.7,58.8 -2.3,131.5 60.3,169.6 z"
             inkscape:connector-curvature="0"
             style="fill:#2ba9e0" />
        </g>
      </g>
      <g
         transform="matrix(0.21636851,0,0,0.21636851,97.624081,529.03818)"
         id="g5937"
         style="fill:#28a9e0;fill-opacity:1" />
      <g
         transform="matrix(0.21636851,0,0,0.21636851,97.624081,529.03818)"
         id="g5939"
         style="fill:#28a9e0;fill-opacity:1" />
      <g
         transform="matrix(0.21636851,0,0,0.21636851,97.624081,529.03818)"
         id="g5941"
         style="fill:#28a9e0;fill-opacity:1" />
      <g
         transform="matrix(0.21636851,0,0,0.21636851,97.624081,529.03818)"
         id="g5943"
         style="fill:#28a9e0;fill-opacity:1" />
      <g
         transform="matrix(0.21636851,0,0,0.21636851,97.624081,529.03818)"
         id="g5945"
         style="fill:#28a9e0;fill-opacity:1" />
      <g
         transform="matrix(0.21636851,0,0,0.21636851,97.624081,529.03818)"
         id="g5947"
         style="fill:#28a9e0;fill-opacity:1" />
      <g
         transform="matrix(0.21636851,0,0,0.21636851,97.624081,529.03818)"
         id="g5949"
         style="fill:#28a9e0;fill-opacity:1" />
      <g
         transform="matrix(0.21636851,0,0,0.21636851,97.624081,529.03818)"
         id="g5951"
         style="fill:#28a9e0;fill-opacity:1" />
      <g
         transform="matrix(0.21636851,0,0,0.21636851,97.624081,529.03818)"
         id="g5953"
         style="fill:#28a9e0;fill-opacity:1" />
      <g
         transform="matrix(0.21636851,0,0,0.21636851,97.624081,529.03818)"
         id="g5955"
         style="fill:#28a9e0;fill-opacity:1" />
      <g
         transform="matrix(0.21636851,0,0,0.21636851,97.624081,529.03818)"
         id="g5957"
         style="fill:#28a9e0;fill-opacity:1" />
      <g
         transform="matrix(0.21636851,0,0,0.21636851,97.624081,529.03818)"
         id="g5959"
         style="fill:#28a9e0;fill-opacity:1" />
      <g
         transform="matrix(0.21636851,0,0,0.21636851,97.624081,529.03818)"
         id="g5961"
         style="fill:#28a9e0;fill-opacity:1" />
      <g
         transform="matrix(0.21636851,0,0,0.21636851,97.624081,529.03818)"
         id="g5963"
         style="fill:#28a9e0;fill-opacity:1" />
      <g
         transform="matrix(0.21636851,0,0,0.21636851,97.624081,529.03818)"
         id="g5965"
         style="fill:#28a9e0;fill-opacity:1" />
      <g
         transform="translate(3.1421223e-7,6.7046742)"
         id="g1640">
        <flowRoot
           transform="translate(-190.67373,38.858804)"
           style="font-style:normal;font-weight:normal;line-height:0.01%;font-family:sans-serif;letter-spacing:0px;word-spacing:0px;writing-mode:lr-tb;fill:#8a8a8a;fill-opacity:1;stroke:none;stroke-width:1px;stroke-linecap:butt;stroke-linejoin:miter;stroke-opacity:1"
           id="flowRoot5463"
           xml:space="preserve"><flowRegion
             id="flowRegion5465"><rect
               style="fill:#8a8a8a;fill-opacity:1"
               y="365.45847"
               x="112.12693"
               height="55.55838"
               width="462.64984"
               id="rect5467" /></flowRegion><flowPara
             style="font-style:normal;font-variant:normal;font-weight:bold;font-stretch:normal;font-size:37.5px;line-height:1.25;font-family:'Open Sans';-inkscape-font-specification:'Open Sans Bold';text-align:center;text-anchor:middle;fill:#8a8a8a;fill-opacity:1"
             id="flowPara5469">Drupal Architecture</flowPara></flowRoot>        <g
           id="g1556"
           transform="translate(25.417114)">
          <text
             id="text5459"
             y="525.20251"
             x="158.53639"
             style="font-style:normal;font-weight:normal;line-height:0%;font-family:sans-serif;letter-spacing:0px;word-spacing:0px;writing-mode:lr-tb;fill:#000000;fill-opacity:1;stroke:none;stroke-width:1px;stroke-linecap:butt;stroke-linejoin:miter;stroke-opacity:1"
             xml:space="preserve"><tspan
               style="font-size:15px;line-height:1.25"
               y="525.20251"
               x="158.53639"
               id="tspan5461"
               sodipodi:role="line"> </tspan></text>
          <flowRoot
             transform="translate(110.73213,106.20596)"
             style="font-style:normal;font-weight:normal;line-height:0.01%;font-family:sans-serif;letter-spacing:0px;word-spacing:0px;writing-mode:lr-tb;fill:#000000;fill-opacity:1;stroke:none;stroke-width:1px;stroke-linecap:butt;stroke-linejoin:miter;stroke-opacity:1"
             id="flowRoot5548"
             xml:space="preserve"><flowRegion
               id="flowRegion5550"><rect
                 y="680.62604"
                 x="404.061"
                 height="149.50258"
                 width="613.1626"
                 id="rect5552" /></flowRegion><flowPara
               style="font-size:15px;line-height:1.25"
               id="flowPara5554"> </flowPara></flowRoot>          <g
             transform="translate(-22.60618)"
             id="g1453">
            <flowRoot
               xml:space="preserve"
               id="flowRoot4748"
               style="font-style:normal;font-weight:normal;line-height:0.01%;font-family:sans-serif;letter-spacing:0px;word-spacing:0px;writing-mode:lr-tb;fill:#28a9e0;fill-opacity:1;stroke:none;stroke-width:1px;stroke-linecap:butt;stroke-linejoin:miter;stroke-opacity:1"
               transform="translate(-35.970291,528.88021)"><flowRegion
                 id="flowRegion4750"><rect
                   id="rect4752"
                   width="338.10974"
                   height="229.996"
                   x="50.507626"
                   y="279.59552"
                   style="fill:#28a9e0;fill-opacity:1" /></flowRegion><flowPara
                 id="flowPara4768"
                 style="font-style:normal;font-variant:normal;font-weight:bold;font-stretch:normal;font-size:25px;line-height:1.25;font-family:'Open Sans';-inkscape-font-specification:'Open Sans Bold';text-align:start;text-anchor:start;fill:#28a9e0;fill-opacity:1">Data Tables</flowPara><flowPara
                 style="font-style:normal;font-variant:normal;font-weight:bold;font-stretch:normal;font-size:25px;line-height:1.25;font-family:'Open Sans';-inkscape-font-specification:'Open Sans Bold';text-align:start;text-anchor:start;fill:#28a9e0;fill-opacity:1"
                 id="flowPara4807">Configuration Tables</flowPara><flowPara
                 style="font-style:normal;font-variant:normal;font-weight:bold;font-stretch:normal;font-size:25px;line-height:1.25;font-family:'Open Sans';-inkscape-font-specification:'Open Sans Bold';text-align:start;text-anchor:start;fill:#28a9e0;fill-opacity:1"
                 id="flowPara4813">System Tables</flowPara><flowPara
                 style="font-style:normal;font-variant:normal;font-weight:bold;font-stretch:normal;font-size:25px;line-height:1.25;font-family:'Open Sans';-inkscape-font-specification:'Open Sans Bold';text-align:start;text-anchor:start;fill:#28a9e0;fill-opacity:1"
                 id="flowPara4811">Cache Tables</flowPara><flowPara
                 style="font-style:normal;font-variant:normal;font-weight:bold;font-stretch:normal;font-size:25px;line-height:1.25;font-family:'Open Sans';-inkscape-font-specification:'Open Sans Bold';text-align:start;text-anchor:start;fill:#28a9e0;fill-opacity:1"
                 id="flowPara4817">...</flowPara></flowRoot>            <g
               id="g1378"
               transform="translate(-2.7233277e-6)">
              <g
                 id="g1360">
                <rect
                   style="color:#000000;clip-rule:nonzero;display:inline;overflow:visible;visibility:visible;opacity:1;isolation:auto;mix-blend-mode:normal;color-interpolation:sRGB;color-interpolation-filters:linearRGB;solid-color:#000000;solid-opacity:1;fill:#2cabe1;fill-opacity:1;fill-rule:nonzero;stroke:none;stroke-width:3;stroke-linecap:round;stroke-linejoin:round;stroke-miterlimit:4;stroke-dasharray:none;stroke-dashoffset:0;stroke-opacity:1;color-rendering:auto;image-rendering:auto;shape-rendering:auto;text-rendering:auto;enable-background:accumulate"
                   id="rect4954"
                   width="274.65887"
                   height="87.572403"
                   x="15.684985"
                   y="675.99921"
                   rx="0"
                   ry="0" />
                <flowRoot
                   xml:space="preserve"
                   id="flowRoot4956"
                   style="font-style:normal;font-weight:normal;line-height:0.01%;font-family:sans-serif;letter-spacing:0px;word-spacing:0px;writing-mode:lr-tb;fill:#ffffff;fill-opacity:1;stroke:none;stroke-width:1px;stroke-linecap:butt;stroke-linejoin:miter;stroke-opacity:1"
                   transform="translate(-53.517072,420.35703)"><flowRegion
                     id="flowRegion4958"><rect
                       id="rect4960"
                       width="310.91159"
                       height="67.500099"
                       x="50.507626"
                       y="279.59552"
                       style="fill:#ffffff;fill-opacity:1" /></flowRegion><flowPara
                     style="font-style:normal;font-variant:normal;font-weight:bold;font-stretch:normal;font-size:37.5px;line-height:1.25;font-family:'Open Sans';-inkscape-font-specification:'Open Sans Bold';text-align:center;text-anchor:middle;fill:#ffffff;fill-opacity:1"
                     id="flowPara4962">DATABASE</flowPara></flowRoot>              </g>
              <g
                 transform="translate(2.856687e-6)"
                 id="g1353">
                <g
                   style="fill:#28a9e0;fill-opacity:1"
                   id="g5919"
                   transform="matrix(0.21636851,0,0,0.21636851,97.624081,529.03818)">
                  <g
                     style="fill:#28a9e0;fill-opacity:1"
                     id="g5921">
                    <path
                       style="fill:#28a9e0;fill-opacity:1"
                       inkscape:connector-curvature="0"
                       d="M 23.814,194.48 V 317.518 H 488.186 V 194.48 Z m 103.817,88.311 c -14.773,0 -26.791,-12.018 -26.791,-26.791 0,-14.773 12.018,-26.791 26.791,-26.791 14.773,0 26.791,12.018 26.791,26.791 0,14.773 -12.018,26.791 -26.791,26.791 z M 393.299,273.86 H 213.172 c -9.864,0 -17.86,-7.997 -17.86,-17.86 0,-9.863 7.997,-17.86 17.86,-17.86 h 180.127 c 9.864,0 17.86,7.997 17.86,17.86 0,9.863 -7.996,17.86 -17.86,17.86 z"
                       id="path5923" />
                  </g>
                </g>
                <g
                   style="fill:#28a9e0;fill-opacity:1"
                   id="g5925"
                   transform="matrix(0.21636851,0,0,0.21636851,97.624081,529.03818)">
                  <g
                     style="fill:#28a9e0;fill-opacity:1"
                     id="g5927">
                    <path
                       style="fill:#28a9e0;fill-opacity:1"
                       inkscape:connector-curvature="0"
                       d="M 23.814,353.241 V 494.14 c 0,9.864 7.997,17.86 17.86,17.86 h 428.651 c 9.864,0 17.86,-7.997 17.86,-17.86 V 353.241 Z M 127.631,459.41 c -14.773,0 -26.791,-12.018 -26.791,-26.791 0,-14.773 12.018,-26.791 26.791,-26.791 14.773,0 26.791,12.018 26.791,26.791 0,14.773 -12.018,26.791 -26.791,26.791 z m 265.668,-8.93 H 213.172 c -9.864,0 -17.86,-7.997 -17.86,-17.86 0,-9.864 7.997,-17.86 17.86,-17.86 h 180.127 c 9.864,0 17.86,7.997 17.86,17.86 0.001,9.864 -7.996,17.86 -17.86,17.86 z"
                       id="path5929" />
                  </g>
                </g>
                <g
                   style="fill:#28a9e0;fill-opacity:1"
                   id="g5931"
                   transform="matrix(0.21636851,0,0,0.21636851,97.624081,529.03818)">
                  <g
                     style="fill:#28a9e0;fill-opacity:1"
                     id="g5933">
                    <path
                       style="fill:#28a9e0;fill-opacity:1"
                       inkscape:connector-curvature="0"
                       d="M 470.326,0 H 41.674 C 31.81,0 23.814,7.997 23.814,17.86 V 158.759 H 488.186 V 17.86 C 488.186,7.997 480.189,0 470.326,0 Z M 127.631,106.171 c -14.773,0 -26.791,-12.018 -26.791,-26.791 0,-14.773 12.019,-26.791 26.791,-26.791 14.773,0 26.791,12.018 26.791,26.791 0,14.773 -12.018,26.791 -26.791,26.791 z m 265.668,-8.93 H 213.172 c -9.864,0 -17.86,-7.997 -17.86,-17.86 0,-9.864 7.997,-17.86 17.86,-17.86 h 180.127 c 9.864,0 17.86,7.997 17.86,17.86 0.001,9.863 -7.996,17.86 -17.86,17.86 z"
                       id="path5935" />
                  </g>
                </g>
              </g>
            </g>
          </g>
          <g
             transform="translate(-50.83423)"
             id="g1477">
            <flowRoot
               transform="translate(330.99486,529.01449)"
               style="font-style:normal;font-weight:normal;line-height:0.01%;font-family:sans-serif;letter-spacing:0px;word-spacing:0px;writing-mode:lr-tb;fill:#28a9e0;fill-opacity:1;stroke:none;stroke-width:1px;stroke-linecap:butt;stroke-linejoin:miter;stroke-opacity:1"
               id="flowRoot4829"
               xml:space="preserve"><flowRegion
                 id="flowRegion4831"><rect
                   style="fill:#28a9e0;fill-opacity:1"
                   y="279.59552"
                   x="50.507626"
                   height="102.61797"
                   width="336.11948"
                   id="rect4833" /></flowRegion><flowPara
                 id="flowPara4843"
                 style="font-style:normal;font-variant:normal;font-weight:bold;font-stretch:normal;font-size:25px;line-height:1.25;font-family:'Open Sans';-inkscape-font-specification:'Open Sans Bold';text-align:start;text-anchor:start;fill:#28a9e0;fill-opacity:1">Public files</flowPara><flowPara
                 style="font-style:normal;font-variant:normal;font-weight:bold;font-stretch:normal;font-size:25px;line-height:1.25;font-family:'Open Sans';-inkscape-font-specification:'Open Sans Bold';text-align:start;text-anchor:start;fill:#28a9e0;fill-opacity:1"
                 id="flowPara4861">Private files</flowPara></flowRoot>            <g
               id="g1403"
               transform="translate(-1.3046875e-5)">
              <g
                 id="g1385">
                <rect
                   ry="0"
                   rx="0"
                   y="676.57159"
                   x="383.74878"
                   height="87"
                   width="240"
                   id="rect4942"
                   style="color:#000000;clip-rule:nonzero;display:inline;overflow:visible;visibility:visible;opacity:1;isolation:auto;mix-blend-mode:normal;color-interpolation:sRGB;color-interpolation-filters:linearRGB;solid-color:#000000;solid-opacity:1;fill:#2cabe1;fill-opacity:1;fill-rule:nonzero;stroke:none;stroke-width:3;stroke-linecap:round;stroke-linejoin:round;stroke-miterlimit:4;stroke-dasharray:none;stroke-dashoffset:0;stroke-opacity:1;color-rendering:auto;image-rendering:auto;shape-rendering:auto;text-rendering:auto;enable-background:accumulate" />
                <flowRoot
                   transform="translate(404.36096,420.64322)"
                   style="font-style:normal;font-weight:normal;line-height:0.01%;font-family:sans-serif;letter-spacing:0px;word-spacing:0px;writing-mode:lr-tb;fill:#ffffff;fill-opacity:1;stroke:none;stroke-width:1px;stroke-linecap:butt;stroke-linejoin:miter;stroke-opacity:1"
                   id="flowRoot4944"
                   xml:space="preserve"><flowRegion
                     id="flowRegion4946"><rect
                       style="fill:#ffffff;fill-opacity:1"
                       y="279.59552"
                       x="50.507626"
                       height="55.558411"
                       width="165.62102"
                       id="rect4948" /></flowRegion><flowPara
                     id="flowPara4950"
                     style="font-style:normal;font-variant:normal;font-weight:bold;font-stretch:normal;font-size:37.5px;line-height:1.25;font-family:'Open Sans';-inkscape-font-specification:'Open Sans Bold';text-align:start;text-anchor:start;fill:#ffffff;fill-opacity:1">FILES</flowPara></flowRoot>              </g>
              <g
                 transform="translate(-27.583351,28.768362)"
                 id="g5633">
                <g
                   id="g5617"
                   style="stroke:#ffffff;stroke-width:3;stroke-miterlimit:4;stroke-dasharray:none;stroke-opacity:1">
                  <path
                     sodipodi:nodetypes="sccssssss"
                     inkscape:connector-curvature="0"
                     id="rect5609"
                     d="m 483.01434,522.21155 h 58.3128 l 12.61067,15.85612 v 70.10365 c 0,3.78092 -1.36182,6.82476 -3.0534,6.82476 h -67.87007 c -1.69159,0 -3.05341,-3.04384 -3.05341,-6.82476 v -79.13501 c 0,-3.78091 1.36182,-6.82476 3.05341,-6.82476 z"
                     style="color:#000000;clip-rule:nonzero;display:inline;overflow:visible;visibility:visible;opacity:1;isolation:auto;mix-blend-mode:normal;color-interpolation:sRGB;color-interpolation-filters:linearRGB;solid-color:#000000;solid-opacity:1;fill:#2cabe1;fill-opacity:1;fill-rule:nonzero;stroke:#ffffff;stroke-width:3;stroke-linecap:round;stroke-linejoin:round;stroke-miterlimit:4;stroke-dasharray:none;stroke-dashoffset:0;stroke-opacity:1;color-rendering:auto;image-rendering:auto;shape-rendering:auto;text-rendering:auto;enable-background:accumulate" />
                  <path
                     inkscape:transform-center-y="-8.7048057"
                     inkscape:transform-center-x="9.1665709"
                     sodipodi:nodetypes="cscc"
                     inkscape:connector-curvature="0"
                     id="path5615"
                     d="m 539.81086,521.28479 c 0,0 -5.32001,14.24658 -1.04619,18.87872 3.71317,4.02449 16.42217,0.41172 16.42217,0.41172 z"
                     style="fill:none;fill-rule:evenodd;stroke:#ffffff;stroke-width:3;stroke-linecap:butt;stroke-linejoin:miter;stroke-miterlimit:4;stroke-dasharray:none;stroke-opacity:1" />
                </g>
                <g
                   style="stroke:#ffffff;stroke-width:3;stroke-miterlimit:4;stroke-dasharray:none;stroke-opacity:1"
                   id="g5621"
                   transform="translate(12.439261,-9.4538387)">
                  <path
                     style="color:#000000;clip-rule:nonzero;display:inline;overflow:visible;visibility:visible;opacity:1;isolation:auto;mix-blend-mode:normal;color-interpolation:sRGB;color-interpolation-filters:linearRGB;solid-color:#000000;solid-opacity:1;fill:#2cabe1;fill-opacity:1;fill-rule:nonzero;stroke:#ffffff;stroke-width:3;stroke-linecap:round;stroke-linejoin:round;stroke-miterlimit:4;stroke-dasharray:none;stroke-dashoffset:0;stroke-opacity:1;color-rendering:auto;image-rendering:auto;shape-rendering:auto;text-rendering:auto;enable-background:accumulate"
                     d="m 483.01434,522.21155 h 58.3128 l 12.61067,15.85612 v 70.10365 c 0,3.78092 -1.36182,6.82476 -3.0534,6.82476 h -67.87007 c -1.69159,0 -3.05341,-3.04384 -3.05341,-6.82476 v -79.13501 c 0,-3.78091 1.36182,-6.82476 3.05341,-6.82476 z"
                     id="path5623"
                     inkscape:connector-curvature="0"
                     sodipodi:nodetypes="sccssssss" />
                  <path
                     style="fill:none;fill-rule:evenodd;stroke:#ffffff;stroke-width:3;stroke-linecap:butt;stroke-linejoin:miter;stroke-miterlimit:4;stroke-dasharray:none;stroke-opacity:1"
                     d="m 539.81086,521.28479 c 0,0 -5.32001,14.24658 -1.04619,18.87872 3.71317,4.02449 16.42217,0.41172 16.42217,0.41172 z"
                     id="path5625"
                     inkscape:connector-curvature="0"
                     sodipodi:nodetypes="cscc"
                     inkscape:transform-center-x="9.1665709"
                     inkscape:transform-center-y="-8.7048057" />
                </g>
                <g
                   transform="translate(26.439261,-23.453839)"
                   id="g5627"
                   style="stroke:#ffffff;stroke-width:3;stroke-miterlimit:4;stroke-dasharray:none;stroke-opacity:1">
                  <path
                     sodipodi:nodetypes="sccssssss"
                     inkscape:connector-curvature="0"
                     id="path5629"
                     d="m 483.01434,522.21155 h 58.3128 l 12.61067,15.85612 v 70.10365 c 0,3.78092 -1.36182,6.82476 -3.0534,6.82476 h -67.87007 c -1.69159,0 -3.05341,-3.04384 -3.05341,-6.82476 v -79.13501 c 0,-3.78091 1.36182,-6.82476 3.05341,-6.82476 z"
                     style="color:#000000;clip-rule:nonzero;display:inline;overflow:visible;visibility:visible;opacity:1;isolation:auto;mix-blend-mode:normal;color-interpolation:sRGB;color-interpolation-filters:linearRGB;solid-color:#000000;solid-opacity:1;fill:#2cabe1;fill-opacity:1;fill-rule:nonzero;stroke:#ffffff;stroke-width:3;stroke-linecap:round;stroke-linejoin:round;stroke-miterlimit:4;stroke-dasharray:none;stroke-dashoffset:0;stroke-opacity:1;color-rendering:auto;image-rendering:auto;shape-rendering:auto;text-rendering:auto;enable-background:accumulate" />
                  <path
                     inkscape:transform-center-y="-8.7048057"
                     inkscape:transform-center-x="9.1665709"
                     sodipodi:nodetypes="cscc"
                     inkscape:connector-curvature="0"
                     id="path5631"
                     d="m 539.81086,521.28479 c 0,0 -5.32001,14.24658 -1.04619,18.87872 3.71317,4.02449 16.42217,0.41172 16.42217,0.41172 z"
                     style="fill:none;fill-rule:evenodd;stroke:#ffffff;stroke-width:3;stroke-linecap:butt;stroke-linejoin:miter;stroke-miterlimit:4;stroke-dasharray:none;stroke-opacity:1" />
                </g>
              </g>
            </g>
          </g>
          <g
             transform="translate(2.2504821e-6)"
             id="g1426">
            <flowRoot
               transform="translate(-368.22771,528.88021)"
               style="font-style:normal;font-weight:normal;line-height:0.01%;font-family:sans-serif;letter-spacing:0px;word-spacing:0px;writing-mode:lr-tb;fill:#28a9e0;fill-opacity:1;stroke:none;stroke-width:1px;stroke-linecap:butt;stroke-linejoin:miter;stroke-opacity:1"
               id="flowRoot4716"
               xml:space="preserve"><flowRegion
                 id="flowRegion4718"><rect
                   style="fill:#28a9e0;fill-opacity:1"
                   y="279.59552"
                   x="50.507626"
                   height="300.36307"
                   width="416.92087"
                   id="rect4720" /></flowRegion><flowPara
                 id="flowPara4722"
                 style="font-style:normal;font-variant:normal;font-weight:bold;font-stretch:normal;font-size:25px;line-height:1.25;font-family:'Open Sans';-inkscape-font-specification:'Open Sans Bold';text-align:start;text-anchor:start;fill:#28a9e0;fill-opacity:1">Themes</flowPara><flowPara
                 style="font-style:normal;font-variant:normal;font-weight:bold;font-stretch:normal;font-size:25px;line-height:1.25;font-family:'Open Sans';-inkscape-font-specification:'Open Sans Bold';text-align:start;text-anchor:start;fill:#28a9e0;fill-opacity:1"
                 id="flowPara4724">Modules</flowPara><flowPara
                 style="font-style:normal;font-variant:normal;font-weight:bold;font-stretch:normal;font-size:25px;line-height:1.25;font-family:'Open Sans';-inkscape-font-specification:'Open Sans Bold';text-align:start;text-anchor:start;fill:#28a9e0;fill-opacity:1"
                 id="flowPara4891">Profiles</flowPara><flowPara
                 style="font-style:normal;font-variant:normal;font-weight:bold;font-stretch:normal;font-size:25px;line-height:1.25;font-family:'Open Sans';-inkscape-font-specification:'Open Sans Bold';text-align:start;text-anchor:start;fill:#28a9e0;fill-opacity:1"
                 id="flowPara4730">Libraries</flowPara><flowPara
                 style="font-style:normal;font-variant:normal;font-weight:bold;font-stretch:normal;font-size:25px;line-height:1.25;font-family:'Open Sans';-inkscape-font-specification:'Open Sans Bold';text-align:start;text-anchor:start;fill:#28a9e0;fill-opacity:1"
                 id="flowPara4732"> </flowPara><flowPara
                 style="font-style:normal;font-variant:normal;font-weight:bold;font-stretch:normal;font-size:25px;line-height:1.25;font-family:'Open Sans';-inkscape-font-specification:'Open Sans Bold';text-align:start;text-anchor:start;fill:#28a9e0;fill-opacity:1"
                 id="flowPara4726">Vendor</flowPara><flowPara
                 style="font-style:normal;font-variant:normal;font-weight:bold;font-stretch:normal;font-size:25px;line-height:1.25;font-family:'Open Sans';-inkscape-font-specification:'Open Sans Bold';text-align:start;text-anchor:start;fill:#28a9e0;fill-opacity:1"
                 id="flowPara4728">Core</flowPara><flowPara
                 style="font-style:normal;font-variant:normal;font-weight:bold;font-stretch:normal;font-size:25px;line-height:1.25;font-family:'Open Sans';-inkscape-font-specification:'Open Sans Bold';text-align:start;text-anchor:start;fill:#28a9e0;fill-opacity:1"
                 id="flowPara4736"> </flowPara><flowPara
                 style="font-style:normal;font-variant:normal;font-weight:bold;font-stretch:normal;font-size:25px;line-height:1.25;font-family:'Open Sans';-inkscape-font-specification:'Open Sans Bold';text-align:start;text-anchor:start;fill:#28a9e0;fill-opacity:1"
                 id="flowPara4734">*Configuration</flowPara><flowPara
                 style="font-style:normal;font-variant:normal;font-weight:bold;font-stretch:normal;font-size:25px;line-height:1.25;font-family:'Open Sans';-inkscape-font-specification:'Open Sans Bold';text-align:start;text-anchor:start;fill:#28a9e0;fill-opacity:1"
                 id="flowPara4819">Site settings</flowPara></flowRoot>            <g
               id="g1342"
               transform="translate(-1.8349609e-5)">
              <g
                 id="g1333">
                <rect
                   style="color:#000000;clip-rule:nonzero;display:inline;overflow:visible;visibility:visible;opacity:1;isolation:auto;mix-blend-mode:normal;color-interpolation:sRGB;color-interpolation-filters:linearRGB;solid-color:#000000;solid-opacity:1;fill:#2cabe1;fill-opacity:1;fill-rule:nonzero;stroke:none;stroke-width:3;stroke-linecap:round;stroke-linejoin:round;stroke-miterlimit:4;stroke-dasharray:none;stroke-dashoffset:0;stroke-opacity:1;color-rendering:auto;image-rendering:auto;shape-rendering:auto;text-rendering:auto;enable-background:accumulate"
                   id="rect4931"
                   width="240"
                   height="87"
                   x="-317.71988"
                   y="676.57159"
                   rx="0"
                   ry="0" />
                <flowRoot
                   xml:space="preserve"
                   id="flowRoot4704"
                   style="font-style:normal;font-weight:normal;line-height:0.01%;font-family:sans-serif;letter-spacing:0px;word-spacing:0px;writing-mode:lr-tb;fill:#ffffff;fill-opacity:1;stroke:none;stroke-width:1px;stroke-linecap:butt;stroke-linejoin:miter;stroke-opacity:1"
                   transform="translate(-299.46976,420.66153)"><flowRegion
                     id="flowRegion4706"><rect
                       id="rect4708"
                       width="165.62102"
                       height="55.558411"
                       x="50.507626"
                       y="279.59552"
                       style="fill:#ffffff;fill-opacity:1" /></flowRegion><flowPara
                     style="font-style:normal;font-variant:normal;font-weight:bold;font-stretch:normal;font-size:37.5px;line-height:1.25;font-family:'Open Sans';-inkscape-font-specification:'Open Sans Bold';text-align:start;text-anchor:start;fill:#ffffff;fill-opacity:1"
                     id="flowPara4712">CODE</flowPara></flowRoot>              </g>
              <path
                 inkscape:connector-curvature="0"
                 id="path5655"
                 d="m -257.1312,638.73928 c -3.97222,-2.43206 -3.83444,-0.33725 -3.65357,-55.5476 l 0.1639,-50.02706 2.29093,-2.09932 2.29094,-2.09933 h 58.44432 c 64.24222,0 60.05915,-0.24836 62.09402,3.68667 0.7913,1.5301 0.91648,8.64971 0.91648,52.10375 v 50.33148 l -2.09933,2.29094 -2.09938,2.29093 -58.15904,0.15628 c -57.4774,0.15445 -58.18288,0.14171 -60.18927,-1.08674 z m 115.03817,-47.9816 0.15763,-41.55224 h -55.50951 -55.50949 v 41.70884 41.70883 l 55.35187,-0.15659 55.35188,-0.15659 z m -62.00042,17.53065 c -0.88416,-0.88415 -0.25839,-4.41323 3.58974,-20.24549 5.158,-21.22142 4.88912,-20.43788 7.01353,-20.43788 3.70744,0 3.68549,0.38383 -1.16947,20.4341 -2.46535,10.18135 -4.73223,18.99453 -5.03754,19.58485 -0.54524,1.05429 -3.55197,1.50871 -4.39626,0.66442 z m 16.76398,-8.48648 v -3.89022 l 9.04643,-3.5194 c 4.97554,-1.93566 9.24368,-3.68582 9.48477,-3.88925 0.24103,-0.20343 -3.82986,-1.99045 -9.04643,-3.97115 l -9.48477,-3.60129 v -3.8796 -3.8796 l 5.05987,2.17066 c 2.78293,1.19386 8.99276,3.8487 13.79964,5.89963 l 8.73977,3.72898 v 3.25528 c 0,2.47274 -0.25802,3.39326 -1.0733,3.82925 -0.59032,0.31568 -6.80016,3.06313 -13.79964,6.10545 l -12.72634,5.53148 z m -34.95908,-2.38555 -13.18631,-5.72821 -0.19043,-2.92737 c -0.10474,-1.61006 0.0824,-3.20016 0.41577,-3.53358 0.33342,-0.33341 6.49096,-3.1545 13.68339,-6.2691 l 13.07722,-5.6629 0.18516,3.69222 c 0.11561,2.30621 -0.0792,3.8556 -0.51911,4.12745 -0.38731,0.23938 -4.54837,1.89064 -9.24674,3.66947 -4.69838,1.77883 -8.37614,3.40206 -8.17282,3.60718 0.20325,0.20512 4.28101,1.91385 9.06157,3.79717 l 8.69194,3.42423 0.18258,3.78225 c 0.10046,2.08024 -0.0374,3.77486 -0.30666,3.76583 -0.26906,-0.009 -6.42309,-2.59411 -13.67556,-5.74464 z m 50.90067,-55.25902 c 2.00898,-2.13848 1.9111,-5.00342 -0.23398,-6.84854 -2.69369,-2.31703 -5.94298,-1.85435 -7.45052,1.0609 -1.28244,2.47998 -1.11409,4.08827 0.60817,5.81053 2.04192,2.04195 5.14591,2.03191 7.07633,-0.0229 z m 13.83221,0.0229 c 3.04217,-3.04217 0.88649,-8.30766 -3.40115,-8.30766 -2.52141,0 -4.90654,2.38513 -4.90654,4.90654 0,2.52141 2.38513,4.90654 4.90654,4.90654 1.19498,0 2.45216,-0.55647 3.40115,-1.50542 z m 13.58669,0.58467 c 1.80812,-1.26642 2.3268,-4.07643 1.16659,-6.31997 -1.54611,-2.98996 -4.76627,-3.47844 -7.4894,-1.13614 -4.63183,3.98417 1.29735,10.97611 6.32281,7.45611 z"
                 style="fill:#2cabe1;fill-opacity:1" />
            </g>
          </g>
        </g>
      </g>
    </g>
  </g>
</svg>
